<svg width="148" height="48" viewBox="0 0 148 48" fill="none" xmlns="http://www.w3.org/2000/svg">
<g clip-path="url(#clip0_39_59)">
<path d="M136.214 3.39297e-05H11.7925C11.3389 3.39297e-05 10.8908 3.39298e-05 10.4385 0.00243393C10.0598 0.00483393 9.68422 0.0118059 9.30194 0.0176739C8.47145 0.0271561 7.64291 0.0980454 6.82352 0.229726C6.00529 0.364273 5.21269 0.617933 4.47253 0.982126C3.73327 1.3494 3.05779 1.82663 2.47059 2.39652C1.8803 2.9648 1.38826 3.62165 1.01337 4.34183C0.637445 5.06056 0.376778 5.83076 0.240371 6.62581C0.102668 7.41986 0.028568 8.22306 0.0187375 9.02821C0.00725999 9.39613 0.00604793 9.76527 0 10.1332V37.8703C0.00604793 38.243 0.00725999 38.6039 0.0187375 38.9766C0.028571 39.7817 0.102671 40.5849 0.240371 41.3789C0.376401 42.1744 0.637084 42.9451 1.01337 43.6641C1.38809 44.3819 1.8802 45.0361 2.47059 45.6012C3.05556 46.1736 3.73148 46.6512 4.47253 47.0157C5.21268 47.3808 6.0052 47.636 6.82352 47.7726C7.64305 47.9033 8.4715 47.9742 9.30194 47.9848C9.68422 47.993 10.0598 47.9976 10.4385 47.9976C10.8908 48 11.3389 48 11.7925 48H136.214C136.659 48 137.11 48 137.555 47.9976C137.932 47.9976 138.318 47.993 138.695 47.9848C139.524 47.9747 140.351 47.9038 141.169 47.7726C141.99 47.635 142.785 47.3799 143.529 47.0157C144.269 46.651 144.944 46.1735 145.529 45.6012C146.118 45.0339 146.611 44.3802 146.99 43.6641C147.364 42.9445 147.622 42.174 147.756 41.3789C147.894 40.5848 147.971 39.7818 147.986 38.9766C147.99 38.6039 147.99 38.243 147.99 37.8703C148 37.4344 148 37.0008 148 36.5578V11.4434C148 11.0039 148 10.568 147.99 10.1332C147.99 9.76527 147.99 9.39613 147.986 9.02816C147.971 8.22294 147.894 7.41992 147.756 6.62576C147.622 5.83117 147.363 5.06104 146.99 4.34178C146.227 2.89827 145.016 1.72326 143.529 0.982018C142.785 0.618715 141.99 0.365122 141.169 0.229618C140.351 0.0973573 139.524 0.0264432 138.695 0.0175059C138.318 0.0116499 137.932 0.00461793 137.555 0.00227793C137.11 -0.00012207 136.659 -0.00012207 136.214 -0.00012207V3.39297e-05Z" fill="#A6A6A6"/>
<path d="M10.4445 46.95C10.0677 46.95 9.69999 46.9453 9.32611 46.9372C8.55161 46.9274 7.77892 46.862 7.01437 46.7415C6.30147 46.6223 5.61086 46.4007 4.96532 46.084C4.3257 45.7698 3.74232 45.3579 3.23752 44.8641C2.72541 44.376 2.29906 43.8099 1.97536 43.1883C1.64809 42.5626 1.4216 41.8919 1.30378 41.1996C1.17654 40.4558 1.1077 39.7036 1.09785 38.9496C1.09001 38.6965 1.07974 37.8539 1.07974 37.8539V10.1332C1.07974 10.1332 1.09068 9.30353 1.09791 9.05978C1.10734 8.307 1.17578 7.556 1.30264 6.81329C1.42068 6.11912 1.64734 5.44652 1.97479 4.81877C2.2973 4.19755 2.72129 3.63105 3.23031 3.14123C3.73876 2.64676 4.32401 2.23274 4.96472 1.91427C5.60877 1.59853 6.29807 1.3785 7.00953 1.26154C7.77659 1.13982 8.55197 1.07401 9.32916 1.06467L10.4451 1.05002H137.549L138.678 1.06526C139.448 1.07414 140.217 1.13936 140.977 1.26037C141.695 1.37879 142.392 1.60036 143.043 1.91779C144.327 2.5596 145.371 3.57501 146.03 4.8217C146.352 5.44511 146.575 6.11223 146.692 6.80041C146.82 7.54921 146.892 8.3061 146.907 9.06506C146.911 9.4049 146.911 9.76994 146.911 10.1332C146.92 10.5832 146.92 11.0115 146.92 11.4434V36.5578C146.92 36.9937 146.92 37.4191 146.911 37.848C146.911 38.2383 146.911 38.5957 146.906 38.9637C146.891 39.7091 146.821 40.4525 146.694 41.1879C146.579 41.8851 146.354 42.561 146.026 43.1919C145.7 43.8068 145.277 44.3679 144.77 44.8547C144.265 45.3512 143.681 45.7656 143.04 46.0817C142.39 46.4009 141.695 46.6233 140.977 46.7415C140.212 46.8626 139.439 46.928 138.665 46.9372C138.303 46.9453 137.923 46.95 137.555 46.95L136.214 46.9524L10.4445 46.95Z" fill="black"/>
<path d="M30.634 24.3608C30.6473 23.3592 30.9215 22.3772 31.4311 21.506C31.9407 20.6349 32.6692 19.903 33.5486 19.3783C32.9899 18.6042 32.2529 17.967 31.396 17.5176C30.5391 17.0681 29.586 16.8187 28.6124 16.7891C26.5355 16.5776 24.5221 17.9949 23.4637 17.9949C22.3849 17.9949 20.7554 16.8101 19.0007 16.8452C17.8658 16.8807 16.7596 17.201 15.7902 17.7746C14.8207 18.3483 14.0208 19.1558 13.4687 20.1186C11.0767 24.1367 12.8609 30.042 15.1522 33.2899C16.2986 34.8803 17.6384 36.6569 19.3915 36.5939C21.107 36.5248 21.7477 35.5325 23.8184 35.5325C25.87 35.5325 26.4711 36.5939 28.2598 36.5538C30.1006 36.5248 31.2604 34.9563 32.3666 33.3508C33.1903 32.2176 33.8241 30.9651 34.2446 29.6398C33.1751 29.2009 32.2624 28.4663 31.6204 27.5276C30.9783 26.5888 30.6353 25.4875 30.634 24.3608Z" fill="white"/>
<path d="M27.2556 14.6531C28.2593 13.484 28.7538 11.9814 28.634 10.4643C27.1006 10.6206 25.6841 11.3317 24.6669 12.4559C24.1695 13.0051 23.7886 13.644 23.5459 14.3361C23.3032 15.0282 23.2034 15.76 23.2524 16.4895C24.0193 16.4972 24.7781 16.3359 25.4715 16.0178C26.165 15.6997 26.775 15.2331 27.2556 14.6531Z" fill="white"/>
<path d="M52.3193 32.5676H46.465L45.0591 36.5953H42.5795L48.1245 21.6937H50.7008L56.2458 36.5953H53.7239L52.3193 32.5676ZM47.0713 30.709H51.7118L49.4242 24.1723H49.3602L47.0713 30.709Z" fill="white"/>
<path d="M68.2213 31.1637C68.2213 34.5398 66.3588 36.709 63.5483 36.709C62.8363 36.7451 62.1282 36.586 61.5051 36.2498C60.882 35.9137 60.3691 35.414 60.0251 34.8082H59.9719V40.1894H57.6734V25.7309H59.8983V27.5379H59.9405C60.3004 26.9349 60.822 26.4379 61.4498 26.0997C62.0776 25.7615 62.7882 25.5947 63.506 25.6172C66.3479 25.6172 68.2213 27.7969 68.2213 31.1637ZM65.8588 31.1637C65.8588 28.9641 64.6872 27.518 62.8997 27.518C61.1435 27.518 59.9623 28.9945 59.9623 31.1637C59.9623 33.3527 61.1435 34.8188 62.8997 34.8188C64.6872 34.8188 65.8588 33.3832 65.8588 31.1637Z" fill="white"/>
<path d="M80.5457 31.1637C80.5457 34.5399 78.6833 36.709 75.8727 36.709C75.1608 36.7451 74.4527 36.586 73.8296 36.2498C73.2065 35.9137 72.6936 35.4141 72.3496 34.8082H72.2964V40.1895H69.9979V25.7309H72.2227V27.5379H72.265C72.6248 26.9349 73.1464 26.4379 73.7742 26.0997C74.4021 25.7615 75.1127 25.5947 75.8304 25.6172C78.6724 25.6172 80.5457 27.7969 80.5457 31.1637ZM78.1833 31.1637C78.1833 28.9641 77.0117 27.518 75.2241 27.518C73.468 27.518 72.2867 28.9945 72.2867 31.1637C72.2867 33.3528 73.468 34.8188 75.2241 34.8188C77.0117 34.8188 78.1833 33.3832 78.1833 31.1637H78.1833Z" fill="white"/>
<path d="M88.6912 32.4434C88.8615 33.9211 90.3411 34.8914 92.3629 34.8914C94.3003 34.8914 95.6941 33.9211 95.6941 32.5886C95.6941 31.432 94.8534 30.7394 92.863 30.2648L90.8725 29.7996C88.0523 29.1386 86.743 27.8589 86.743 25.7824C86.743 23.2113 89.0523 21.4453 92.3315 21.4453C95.5769 21.4453 97.8017 23.2113 97.8766 25.7824H95.5564C95.4175 24.2953 94.1505 23.3976 92.2989 23.3976C90.4473 23.3976 89.1803 24.3058 89.1803 25.6277C89.1803 26.6812 89.9896 27.3011 91.9692 27.7757L93.6613 28.1788C96.8125 28.9019 98.1217 30.13 98.1217 32.3097C98.1217 35.0976 95.8329 36.8436 92.1926 36.8436C88.7866 36.8436 86.4869 35.1386 86.3383 32.4432L88.6912 32.4434Z" fill="white"/>
<path d="M103.082 23.1598V25.7309H105.212V27.4969H103.082V33.4863C103.082 34.4168 103.509 34.8504 104.445 34.8504C104.697 34.8461 104.95 34.8289 105.201 34.7988V36.5542C104.78 36.6305 104.352 36.6651 103.924 36.6574C101.657 36.6574 100.773 35.8312 100.773 33.7242V27.4969H99.1448V25.7309H100.773V23.1598H103.082Z" fill="white"/>
<path d="M106.445 31.1637C106.445 27.7453 108.52 25.5973 111.756 25.5973C115.002 25.5973 117.067 27.7453 117.067 31.1637C117.067 34.5914 115.013 36.7301 111.756 36.7301C108.499 36.7301 106.445 34.5914 106.445 31.1637ZM114.726 31.1637C114.726 28.8188 113.618 27.4348 111.756 27.4348C109.893 27.4348 108.787 28.8293 108.787 31.1637C108.787 33.518 109.893 34.8914 111.756 34.8914C113.618 34.8914 114.725 33.518 114.725 31.1637H114.726Z" fill="white"/>
<path d="M118.963 25.7309H121.155V27.5801H121.208C121.356 27.0025 121.705 26.4921 122.195 26.1347C122.686 25.7772 123.288 25.5945 123.901 25.6172C124.166 25.6163 124.43 25.6442 124.689 25.7004V27.7863C124.354 27.6872 124.006 27.6417 123.656 27.6516C123.322 27.6384 122.989 27.6955 122.68 27.819C122.371 27.9425 122.093 28.1294 121.866 28.3668C121.638 28.6043 121.466 28.8867 121.362 29.1947C121.258 29.5027 121.223 29.829 121.261 30.1512V36.5953H118.962L118.963 25.7309Z" fill="white"/>
<path d="M135.286 33.4043C134.977 35.3766 132.997 36.7301 130.464 36.7301C127.207 36.7301 125.185 34.6125 125.185 31.2152C125.185 27.8074 127.218 25.5973 130.368 25.5973C133.466 25.5973 135.414 27.6621 135.414 30.9562V31.7203H127.505V31.8551C127.469 32.2549 127.52 32.6577 127.657 33.0367C127.793 33.4157 128.011 33.7623 128.296 34.0533C128.581 34.3444 128.926 34.5733 129.309 34.7249C129.692 34.8764 130.104 34.9472 130.518 34.9324C131.061 34.9818 131.606 34.8597 132.072 34.5844C132.538 34.3091 132.9 33.8952 133.104 33.4043L135.286 33.4043ZM127.516 30.1617H133.114C133.135 29.8022 133.079 29.4424 132.949 29.105C132.82 28.7675 132.62 28.4597 132.362 28.2008C132.104 27.9418 131.794 27.7374 131.451 27.6004C131.108 27.4633 130.739 27.3966 130.368 27.4043C129.994 27.4021 129.623 27.4719 129.276 27.6096C128.93 27.7473 128.615 27.9502 128.35 28.2065C128.085 28.4629 127.875 28.7676 127.731 29.1032C127.588 29.4388 127.515 29.7986 127.516 30.1617V30.1617Z" fill="white"/>
<path d="M46.7833 10.4772C47.2651 10.4437 47.7487 10.5143 48.199 10.684C48.6493 10.8537 49.0552 11.1183 49.3874 11.4587C49.7196 11.799 49.9698 12.2066 50.12 12.6522C50.2701 13.0977 50.3165 13.57 50.2557 14.035C50.2557 16.3225 48.9815 17.6374 46.7833 17.6374H44.1176V10.4772H46.7833ZM45.2638 16.6248H46.6552C46.9996 16.6448 47.3442 16.59 47.6639 16.4645C47.9837 16.3389 48.2706 16.1458 48.5037 15.8991C48.7368 15.6524 48.9103 15.3584 49.0116 15.0385C49.1128 14.7185 49.1393 14.3807 49.089 14.0496C49.1356 13.7198 49.1065 13.3841 49.0037 13.0665C48.9009 12.7489 48.727 12.4573 48.4944 12.2126C48.2618 11.9679 47.9763 11.7761 47.6583 11.651C47.3403 11.5259 46.9978 11.4706 46.6552 11.4891H45.2638V16.6248Z" fill="white"/>
<path d="M51.5505 14.9332C51.5155 14.5781 51.5574 14.2198 51.6734 13.8814C51.7895 13.5429 51.9772 13.2317 52.2245 12.9677C52.4717 12.7037 52.7732 12.4928 53.1094 12.3485C53.4456 12.2041 53.8092 12.1296 54.1769 12.1296C54.5445 12.1296 54.9081 12.2041 55.2444 12.3485C55.5806 12.4928 55.882 12.7037 56.1293 12.9677C56.3766 13.2317 56.5643 13.5429 56.6803 13.8814C56.7964 14.2198 56.8383 14.5781 56.8032 14.9332C56.8389 15.2887 56.7976 15.6475 56.6818 15.9865C56.566 16.3255 56.3785 16.6373 56.1311 16.9018C55.8838 17.1663 55.5821 17.3777 55.2456 17.5223C54.909 17.667 54.545 17.7417 54.1769 17.7417C53.8088 17.7417 53.4447 17.667 53.1082 17.5223C52.7716 17.3777 52.47 17.1663 52.2226 16.9018C51.9753 16.6373 51.7877 16.3255 51.6719 15.9865C51.5562 15.6475 51.5148 15.2887 51.5505 14.9332ZM55.6727 14.9332C55.6727 13.7619 55.1304 13.077 54.1787 13.077C53.2233 13.077 52.6859 13.7619 52.6859 14.9332C52.6859 16.1139 53.2233 16.7936 54.1787 16.7936C55.1304 16.7936 55.6727 16.1092 55.6727 14.9332H55.6727Z" fill="white"/>
<path d="M63.7856 17.6373H62.6454L61.4944 13.6576H61.4074L60.2612 17.6373H59.1319L57.5968 12.2338H58.7116L59.7092 16.357H59.7914L60.9364 12.2338H61.9908L63.1358 16.357H63.2228L64.2156 12.2338H65.3147L63.7856 17.6373Z" fill="white"/>
<path d="M66.6058 12.2338H67.6639V13.0922H67.746C67.8853 12.7839 68.1203 12.5254 68.4182 12.3529C68.7161 12.1803 69.0621 12.1022 69.4079 12.1295C69.6789 12.1097 69.951 12.1494 70.2041 12.2455C70.4571 12.3416 70.6846 12.4917 70.8697 12.6847C71.0549 12.8778 71.1929 13.1087 71.2735 13.3605C71.3542 13.6123 71.3754 13.8784 71.3356 14.1393V17.6373H70.2365V14.407C70.2365 13.5387 69.8476 13.1068 69.0347 13.1068C68.8507 13.0985 68.6671 13.1289 68.4963 13.1959C68.3256 13.2629 68.1718 13.3649 68.0455 13.495C67.9192 13.6251 67.8233 13.7801 67.7646 13.9494C67.7058 14.1188 67.6854 14.2985 67.7049 14.4762V17.6373H66.6058L66.6058 12.2338Z" fill="white"/>
<path d="M73.0869 10.1244H74.186V17.6373H73.0869V10.1244Z" fill="white"/>
<path d="M75.7139 14.9332C75.6789 14.5781 75.7208 14.2198 75.8369 13.8813C75.953 13.5428 76.1407 13.2316 76.388 12.9676C76.6353 12.7036 76.9368 12.4927 77.273 12.3484C77.6093 12.204 77.9729 12.1295 78.3406 12.1295C78.7083 12.1295 79.0719 12.204 79.4081 12.3484C79.7444 12.4927 80.0458 12.7036 80.2931 12.9676C80.5405 13.2316 80.7282 13.5428 80.8443 13.8813C80.9604 14.2198 81.0023 14.5781 80.9673 14.9332C81.0029 15.2887 80.9615 15.6475 80.8457 15.9865C80.7299 16.3256 80.5423 16.6373 80.2949 16.9018C80.0475 17.1663 79.7459 17.3777 79.4093 17.5223C79.0727 17.6669 78.7087 17.7417 78.3406 17.7417C77.9725 17.7417 77.6084 17.6669 77.2719 17.5223C76.9353 17.3777 76.6336 17.1663 76.3863 16.9018C76.1389 16.6373 75.9513 16.3256 75.8355 15.9865C75.7197 15.6475 75.6783 15.2887 75.7139 14.9332ZM79.8361 14.9332C79.8361 13.762 79.2938 13.077 78.3421 13.077C77.3867 13.077 76.8493 13.762 76.8493 14.9333C76.8493 16.1139 77.3868 16.7936 78.3421 16.7936C79.2938 16.7936 79.8362 16.1092 79.8362 14.9332H79.8361Z" fill="white"/>
<path d="M82.1244 16.1092C82.1244 15.1365 82.8708 14.5758 84.1957 14.4961L85.7043 14.4117V13.9453C85.7043 13.3746 85.3154 13.0524 84.5641 13.0524C83.9506 13.0524 83.5254 13.2709 83.4034 13.653H82.3393C82.4517 12.7248 83.3515 12.1295 84.6149 12.1295C86.0111 12.1295 86.7986 12.8039 86.7986 13.9453V17.6373H85.7405V16.878H85.6536C85.4771 17.1503 85.2292 17.3724 84.9353 17.5215C84.6414 17.6705 84.312 17.7412 83.9808 17.7264C83.747 17.7499 83.5107 17.7257 83.2871 17.6553C83.0635 17.5849 82.8577 17.4698 82.6828 17.3174C82.5079 17.165 82.3678 16.9788 82.2716 16.7707C82.1754 16.5626 82.1253 16.3373 82.1244 16.1092ZM85.7043 15.6475V15.1957L84.3443 15.2801C83.5773 15.3299 83.2295 15.583 83.2295 16.0594C83.2295 16.5457 83.6643 16.8287 84.2622 16.8287C84.4374 16.8459 84.6144 16.8288 84.7826 16.7783C84.9508 16.7277 85.1068 16.6449 85.2414 16.5347C85.3759 16.4245 85.4862 16.2892 85.5658 16.1367C85.6453 15.9843 85.6924 15.8179 85.7043 15.6475Z" fill="white"/>
<path d="M88.2431 14.9332C88.2431 13.2258 89.1478 12.1442 90.5548 12.1442C90.9029 12.1286 91.2483 12.2095 91.5508 12.3774C91.8532 12.5452 92.1001 12.7932 92.2627 13.0922H92.3448V10.1244H93.4439V17.6373H92.3907V16.7836H92.3038C92.1286 17.0806 91.8731 17.3254 91.5648 17.4916C91.2565 17.6578 90.9073 17.739 90.5549 17.7264C89.1381 17.7264 88.2431 16.6448 88.2431 14.9332ZM89.3785 14.9332C89.3785 16.0793 89.9353 16.769 90.8665 16.769C91.7929 16.769 92.3654 16.0694 92.3654 14.9379C92.3654 13.8117 91.7869 13.1022 90.8665 13.1022C89.9413 13.1022 89.3784 13.7965 89.3784 14.9332H89.3785Z" fill="white"/>
<path d="M97.9913 14.9332C97.9563 14.5781 97.9982 14.2198 98.1142 13.8814C98.2303 13.5429 98.418 13.2317 98.6653 12.9677C98.9126 12.7037 99.214 12.4928 99.5502 12.3485C99.8864 12.2041 100.25 12.1296 100.618 12.1296C100.985 12.1296 101.349 12.2041 101.685 12.3485C102.021 12.4928 102.323 12.7037 102.57 12.9677C102.817 13.2317 103.005 13.5429 103.121 13.8814C103.237 14.2198 103.279 14.5781 103.244 14.9332C103.28 15.2887 103.238 15.6475 103.123 15.9865C103.007 16.3255 102.819 16.6373 102.572 16.9018C102.325 17.1663 102.023 17.3777 101.686 17.5223C101.35 17.667 100.986 17.7417 100.618 17.7417C100.25 17.7417 99.8856 17.667 99.549 17.5223C99.2125 17.3777 98.9108 17.1663 98.6635 16.9018C98.4161 16.6373 98.2285 16.3255 98.1128 15.9865C97.997 15.6475 97.9557 15.2887 97.9913 14.9332ZM102.114 14.9332C102.114 13.7619 101.571 13.077 100.62 13.077C99.6641 13.077 99.1267 13.7619 99.1267 14.9332C99.1267 16.1139 99.6642 16.7936 100.62 16.7936C101.571 16.7936 102.114 16.1092 102.114 14.9332Z" fill="white"/>
<path d="M104.719 12.2338H105.777V13.0922H105.859C105.998 12.7839 106.233 12.5254 106.531 12.3529C106.829 12.1803 107.175 12.1022 107.521 12.1295C107.792 12.1097 108.064 12.1494 108.317 12.2455C108.57 12.3416 108.798 12.4917 108.983 12.6847C109.168 12.8778 109.306 13.1087 109.387 13.3605C109.467 13.6123 109.488 13.8784 109.449 14.1393V17.6373H108.349V14.407C108.349 13.5387 107.961 13.1068 107.148 13.1068C106.964 13.0985 106.78 13.1289 106.609 13.1959C106.439 13.2629 106.285 13.3649 106.158 13.495C106.032 13.6251 105.936 13.7801 105.878 13.9494C105.819 14.1188 105.798 14.2985 105.818 14.4762V17.6373H104.719V12.2338Z" fill="white"/>
<path d="M115.659 10.8885V12.2584H116.866V13.1567H115.659V15.9352C115.659 16.5012 115.9 16.749 116.447 16.749C116.587 16.7486 116.727 16.7404 116.866 16.7244V17.6127C116.668 17.647 116.468 17.6652 116.268 17.6672C115.046 17.6672 114.559 17.25 114.559 16.2082V13.1566H113.675V12.2584H114.559V10.8885H115.659Z" fill="white"/>
<path d="M118.367 10.1244H119.456V13.1022H119.543C119.69 12.791 119.931 12.5311 120.235 12.3578C120.539 12.1846 120.89 12.1065 121.242 12.1342C121.511 12.12 121.781 12.1636 122.031 12.2621C122.281 12.3605 122.506 12.5113 122.689 12.7037C122.872 12.8961 123.009 13.1254 123.091 13.3752C123.172 13.6249 123.196 13.889 123.16 14.1486V17.6373H122.059V14.4117C122.059 13.5486 121.645 13.1115 120.868 13.1115C120.68 13.0965 120.49 13.1217 120.312 13.1853C120.134 13.249 119.973 13.3496 119.839 13.4801C119.705 13.6106 119.603 13.7678 119.538 13.9408C119.474 14.1137 119.449 14.2983 119.466 14.4814V17.6373H118.367L118.367 10.1244Z" fill="white"/>
<path d="M129.568 16.1783C129.419 16.6722 129.095 17.0994 128.654 17.3851C128.213 17.6709 127.682 17.7971 127.155 17.7416C126.788 17.751 126.424 17.6828 126.086 17.5418C125.749 17.4008 125.448 17.1903 125.203 16.9249C124.959 16.6595 124.776 16.3457 124.669 16.0051C124.562 15.6645 124.532 15.3053 124.582 14.9526C124.534 14.5987 124.564 14.2388 124.671 13.8972C124.778 13.5556 124.959 13.2402 125.202 12.9726C125.446 12.7049 125.746 12.4911 126.082 12.3456C126.418 12.2002 126.782 12.1265 127.15 12.1295C128.7 12.1295 129.635 13.1567 129.635 14.8535V15.2256H125.702V15.2854C125.685 15.4837 125.711 15.6833 125.777 15.8714C125.844 16.0595 125.951 16.2319 126.091 16.3777C126.23 16.5234 126.4 16.6392 126.588 16.7177C126.777 16.7962 126.98 16.8356 127.185 16.8334C127.448 16.864 127.715 16.8181 127.95 16.7014C128.186 16.5848 128.381 16.4027 128.51 16.1783L129.568 16.1783ZM125.702 14.4369H128.515C128.529 14.2556 128.503 14.0734 128.44 13.9022C128.377 13.7309 128.278 13.5743 128.149 13.4425C128.02 13.3107 127.864 13.2065 127.691 13.1367C127.518 13.0669 127.332 13.033 127.144 13.0371C126.954 13.0348 126.765 13.0694 126.589 13.139C126.413 13.2085 126.253 13.3115 126.119 13.442C125.984 13.5725 125.878 13.7277 125.807 13.8986C125.735 14.0694 125.7 14.2525 125.702 14.4369H125.702Z" fill="white"/>
</g>
<defs>
<clipPath id="clip0_39_59">
<rect width="148" height="48" fill="white"/>
</clipPath>
</defs>
</svg>
