<svg width="171" height="48" viewBox="0 0 171 48" fill="none" xmlns="http://www.w3.org/2000/svg">
<path fill-rule="evenodd" clip-rule="evenodd" d="M164.664 48H6.33566C2.84381 48 0 45.2948 0 42V6C0 2.69327 2.84381 0 6.33566 0H164.664C168.153 0 171 2.69327 171 6V42C171 45.2948 168.153 48 164.664 48Z" fill="black"/>
<path fill-rule="evenodd" clip-rule="evenodd" d="M164.664 0.960598C167.593 0.960598 169.99 3.22594 169.99 6V42C169.99 44.7741 167.609 47.0394 164.664 47.0394H6.33566C3.40691 47.0394 1.00981 44.7741 1.00981 42V6C1.00981 3.22594 3.39118 0.960598 6.33566 0.960598H164.664ZM164.664 0H6.33566C2.84381 0 0 2.70524 0 6V42C0 45.3067 2.84381 48 6.33566 48H164.664C168.153 48 171 45.3067 171 42V6C171 2.70524 168.153 0 164.664 0Z" fill="#A6A6A6"/>
<path d="M90.0833 15.8783C88.9413 15.8783 87.9787 15.4983 87.2174 14.7501C86.4624 14.023 86.0409 13.0205 86.0598 11.997C86.0598 10.9047 86.4499 9.98006 87.2174 9.24689C87.9756 8.49876 88.9382 8.11871 90.0801 8.11871C91.2094 8.11871 92.1721 8.49876 92.9459 9.24689C93.7135 10.004 94.1036 10.9287 94.1036 11.997C94.091 13.0923 93.7009 14.017 92.9459 14.7471C92.1878 15.5013 91.2252 15.8783 90.0833 15.8783ZM56.1055 15.8783C54.9888 15.8783 54.0199 15.5042 53.2271 14.7651C52.4407 14.0289 52.0412 13.0983 52.0412 12C52.0412 10.9018 52.4407 9.97108 53.2271 9.23492C54.0041 8.49577 54.973 8.12171 56.1055 8.12171C56.6592 8.12171 57.1971 8.22644 57.713 8.43891C58.2195 8.6454 58.6316 8.92669 58.9367 9.27083L59.0122 9.35762L58.1597 10.1536L58.0716 10.0549C57.5903 9.51023 56.9454 9.2439 56.0929 9.2439C55.3317 9.2439 54.6679 9.50126 54.1205 10.01C53.57 10.5217 53.29 11.192 53.29 12.003C53.29 12.814 53.57 13.4843 54.1205 13.996C54.6679 14.5047 55.3317 14.7621 56.0929 14.7621C56.9046 14.7621 57.5872 14.5047 58.1188 13.996C58.4334 13.6968 58.6284 13.2778 58.6977 12.7481H55.964V11.6289H59.871L59.8868 11.7307C59.9151 11.9192 59.9434 12.1137 59.9434 12.2933C59.9434 13.3257 59.6162 14.1606 58.9682 14.7771C58.2321 15.5072 57.2695 15.8783 56.1055 15.8783ZM101.282 15.7197H100.077L96.3874 10.1028L96.4189 11.1142V15.7167H95.214V8.28031H96.5887L96.6265 8.33717L100.096 13.6279L100.065 12.6195V8.28031H101.282V15.7197ZM81.0297 15.7197H79.8091V9.39951H77.692V8.28031H83.1436V9.39951H81.0265V15.7197H81.0297ZM76.6979 15.7197H75.4805V8.28031H76.6979V15.7197ZM69.8558 15.7197H68.6384V9.39951H66.5213V8.28031H71.9729V9.39951H69.8558V15.7197ZM65.7505 15.7077H61.0822V8.28031H65.7505V9.39951H62.3027V11.4404H65.4139V12.5476H62.3027V14.5885H65.7505V15.7077ZM88.1108 13.9811C88.6551 14.4988 89.3157 14.7591 90.0833 14.7591C90.8728 14.7591 91.5177 14.5047 92.0557 13.9811C92.5905 13.4723 92.861 12.805 92.861 12C92.861 11.195 92.5904 10.5247 92.0588 10.019C91.5146 9.50126 90.8508 9.24091 90.0864 9.24091C89.2968 9.24091 88.6519 9.49527 88.1171 10.019C87.5823 10.5277 87.3118 11.195 87.3118 12C87.3118 12.805 87.5792 13.4753 88.1108 13.9811Z" fill="white"/>
<path fill-rule="evenodd" clip-rule="evenodd" d="M85.9466 26.1067C82.9738 26.1067 80.5641 28.2524 80.5641 31.212C80.5641 34.1446 82.9896 36.3172 85.9466 36.3172C88.9194 36.3172 91.3291 34.1566 91.3291 31.212C91.3291 28.2524 88.9194 26.1067 85.9466 26.1067ZM85.9466 34.2943C84.3202 34.2943 82.9204 33.0135 82.9204 31.2C82.9204 29.3596 84.3234 28.1057 85.9466 28.1057C87.573 28.1057 88.9729 29.3596 88.9729 31.2C88.9761 33.0254 87.573 34.2943 85.9466 34.2943ZM74.2033 26.1067C71.2305 26.1067 68.8208 28.2524 68.8208 31.212C68.8208 34.1446 71.2462 36.3172 74.2033 36.3172C77.1761 36.3172 79.5858 34.1566 79.5858 31.212C79.5858 28.2524 77.173 26.1067 74.2033 26.1067ZM74.2033 34.2943C72.5769 34.2943 71.177 33.0135 71.177 31.2C71.177 29.3596 72.5801 28.1057 74.2033 28.1057C75.8297 28.1057 77.2296 29.3596 77.2296 31.2C77.2296 33.0254 75.8297 34.2943 74.2033 34.2943ZM60.2296 27.6658V29.8264H65.6813C65.5146 31.0384 65.093 31.9332 64.4481 32.5466C63.6491 33.3067 62.4159 34.1327 60.2422 34.1327C56.8919 34.1327 54.2714 31.5591 54.2714 28.3721C54.2714 25.185 56.8919 22.6115 60.2422 22.6115C62.051 22.6115 63.3691 23.2908 64.3475 24.1586L65.9581 22.6264C64.5991 21.3875 62.7903 20.4389 60.2548 20.4389C55.6587 20.4389 51.8019 24 51.8019 28.3601C51.8019 32.7322 55.6556 36.2813 60.2548 36.2813C62.7368 36.2813 64.5991 35.5092 66.0714 34.0549C67.5719 32.6274 68.0469 30.6135 68.0469 28.9885C68.0469 28.4828 68.006 28.0279 67.9211 27.6419H60.2264C60.2296 27.6389 60.2296 27.6658 60.2296 27.6658ZM117.386 29.3476C116.936 28.2015 115.577 26.0948 112.79 26.0948C110.028 26.0948 107.731 28.1626 107.731 31.2C107.731 34.0668 110.003 36.3052 113.057 36.3052C115.511 36.3052 116.939 34.8778 117.527 34.0399L115.706 32.8788C115.102 33.7317 114.262 34.2913 113.07 34.2913C111.865 34.2913 111.022 33.7706 110.462 32.7441L117.638 29.9162C117.638 29.9192 117.386 29.3476 117.386 29.3476ZM110.069 31.0534C110.012 29.0813 111.679 28.0788 112.872 28.0788C113.812 28.0788 114.596 28.5187 114.863 29.1591L110.069 31.0534ZM104.24 36H106.596V21.0015H104.24V36ZM100.37 27.2409H100.285C99.7536 26.6394 98.7438 26.0948 97.454 26.0948C94.7769 26.0948 92.3106 28.3362 92.3106 31.215C92.3106 34.0818 94.7643 36.2963 97.454 36.2963C98.7281 36.2963 99.7536 35.7486 100.285 35.1352H100.37V35.8683C100.37 37.8165 99.2754 38.8668 97.5106 38.8668C96.0667 38.8668 95.1702 37.8793 94.8052 37.0534L92.7573 37.8673C93.3456 39.214 94.9154 40.8808 97.5075 40.8808C100.27 40.8808 102.61 39.3337 102.61 35.5601V26.4H100.383V27.2409C100.386 27.2409 100.37 27.2409 100.37 27.2409ZM97.6648 34.2943C96.0384 34.2943 94.6794 33.0015 94.6794 31.215C94.6794 29.4135 96.0384 28.1087 97.6648 28.1087C99.2755 28.1087 100.524 29.4284 100.524 31.215C100.54 33.0015 99.2786 34.2943 97.6648 34.2943ZM128.418 21.0015H122.784V36H125.14V30.3202H128.421C131.029 30.3202 133.593 28.5217 133.593 25.6668C133.593 22.812 131.039 21.0015 128.418 21.0015ZM128.487 28.2254H125.137V23.0783H128.487C130.252 23.0783 131.25 24.4638 131.25 25.6519C131.25 26.8279 130.24 28.2254 128.487 28.2254ZM143.037 26.0798C141.326 26.0798 139.561 26.801 138.831 28.3721L140.92 29.198C141.37 28.3721 142.194 28.0908 143.065 28.0908C144.286 28.0908 145.519 28.785 145.547 30.0239V30.1825C145.126 29.9551 144.201 29.608 143.094 29.608C140.838 29.608 138.551 30.781 138.551 32.9805C138.551 34.9945 140.401 36.2873 142.461 36.2873C144.044 36.2873 144.915 35.608 145.459 34.8209H145.544V35.982H147.815V30.2364C147.815 27.5611 145.727 26.0798 143.037 26.0798ZM142.741 34.2943C141.97 34.2943 140.891 33.9352 140.891 33.0135C140.891 31.8524 142.238 31.4125 143.386 31.4125C144.424 31.4125 144.915 31.6249 145.532 31.9182C145.362 33.2648 144.166 34.2823 142.741 34.2943ZM156.101 26.4L153.396 32.9057H153.311L150.508 26.4H147.973L152.179 35.4943L149.782 40.5486H152.235L158.706 26.4H156.101ZM134.892 36H137.249V21.0015H134.892V36Z" fill="white"/>
<path fill-rule="evenodd" clip-rule="evenodd" d="M13.162 9.04039C12.7971 9.41446 12.5864 9.98603 12.5864 10.7342V37.2688C12.5864 38.0169 12.7971 38.5885 13.1746 38.9476L13.2721 39.0284L28.9006 24.1616V23.8294L13.2596 8.95959L13.162 9.04039Z" fill="url(#paint0_linear_39_94)"/>
<path fill-rule="evenodd" clip-rule="evenodd" d="M34.1006 29.1322L28.888 24.1736V23.8264L34.1006 18.8678L34.2138 18.9337L40.3796 22.2673C42.1444 23.213 42.1444 24.7751 40.3796 25.7327L34.2138 29.0663L34.1006 29.1322Z" fill="url(#paint1_linear_39_94)"/>
<path fill-rule="evenodd" clip-rule="evenodd" d="M34.2138 29.0663L28.888 24L13.162 38.9596C13.7377 39.5461 14.7035 39.612 15.7825 39.0404L34.2138 29.0663Z" fill="url(#paint2_linear_39_94)"/>
<path fill-rule="evenodd" clip-rule="evenodd" d="M34.2138 18.9337L15.7825 8.97455C14.7035 8.38802 13.7346 8.46881 13.162 9.05535L28.888 24L34.2138 18.9337Z" fill="url(#paint3_linear_39_94)"/>
<path opacity="0.2" fill-rule="evenodd" clip-rule="evenodd" d="M34.1006 28.9586L15.7951 38.8519C14.7727 39.4115 13.8604 39.3726 13.2722 38.8639L13.1747 38.9566L13.2722 39.0374C13.8604 39.5432 14.7727 39.5851 15.7951 39.0255L34.2264 29.0663L34.1006 28.9586Z" fill="black"/>
<path opacity="0.12" fill-rule="evenodd" clip-rule="evenodd" d="M40.3796 25.5591L34.0849 28.9586L34.1981 29.0663L40.3639 25.7327C41.2479 25.2539 41.682 24.6254 41.682 24C41.6285 24.5746 41.1787 25.1192 40.3796 25.5591Z" fill="black"/>
<path opacity="0.25" fill-rule="evenodd" clip-rule="evenodd" d="M15.7825 9.14813L40.3797 22.4409C41.1787 22.8689 41.6286 23.4285 41.6978 24C41.6978 23.3746 41.2636 22.7462 40.3797 22.2674L15.7825 8.97456C14.0177 8.01396 12.5864 8.81596 12.5864 10.7342V10.9077C12.5864 8.98653 14.0177 8.1995 15.7825 9.14813Z" fill="white"/>
<defs>
<linearGradient id="paint0_linear_39_94" x1="27.4988" y1="10.4479" x2="2.63786" y2="17.4115" gradientUnits="userSpaceOnUse">
<stop stop-color="#00A0FF"/>
<stop offset="0.00657" stop-color="#00A1FF"/>
<stop offset="0.2601" stop-color="#00BEFF"/>
<stop offset="0.5122" stop-color="#00D2FF"/>
<stop offset="0.7604" stop-color="#00DFFF"/>
<stop offset="1" stop-color="#00E3FF"/>
</linearGradient>
<linearGradient id="paint1_linear_39_94" x1="42.681" y1="24" x2="12.1575" y2="24" gradientUnits="userSpaceOnUse">
<stop stop-color="#FFE000"/>
<stop offset="0.4087" stop-color="#FFBD00"/>
<stop offset="0.7754" stop-color="#FFA500"/>
<stop offset="1" stop-color="#FF9C00"/>
</linearGradient>
<linearGradient id="paint2_linear_39_94" x1="31.3178" y1="26.7568" x2="12.6689" y2="59.7523" gradientUnits="userSpaceOnUse">
<stop stop-color="#FF3A44"/>
<stop offset="1" stop-color="#C31162"/>
</linearGradient>
<linearGradient id="paint3_linear_39_94" x1="9.20209" y1="0.214536" x2="17.5218" y2="14.9502" gradientUnits="userSpaceOnUse">
<stop stop-color="#32A071"/>
<stop offset="0.0685" stop-color="#2DA771"/>
<stop offset="0.4762" stop-color="#15CF74"/>
<stop offset="0.8009" stop-color="#06E775"/>
<stop offset="1" stop-color="#00F076"/>
</linearGradient>
</defs>
</svg>
