<svg width="44" height="33" viewBox="0 0 44 33" fill="none" xmlns="http://www.w3.org/2000/svg">
<rect width="44" height="33" rx="12" fill="white"/>
<path fill-rule="evenodd" clip-rule="evenodd" d="M18.1883 12.1883C18.4393 11.9372 18.8464 11.9372 19.0974 12.1883L22.5 15.5909L25.9026 12.1883C26.1536 11.9372 26.5607 11.9372 26.8117 12.1883C27.0628 12.4393 27.0628 12.8464 26.8117 13.0974L23.4091 16.5L26.8117 19.9026C27.0628 20.1536 27.0628 20.5607 26.8117 20.8117C26.5607 21.0628 26.1536 21.0628 25.9026 20.8117L22.5 17.4091L19.0974 20.8117C18.8464 21.0628 18.4393 21.0628 18.1883 20.8117C17.9372 20.5607 17.9372 20.1536 18.1883 19.9026L21.5909 16.5L18.1883 13.0974C17.9372 12.8464 17.9372 12.4393 18.1883 12.1883Z" fill="#171717"/>
</svg>
